<?xml version="1.0" encoding="UTF-8"?>
<svg width="688px" height="73px" viewBox="0 0 688 73" version="1.1" xmlns="http://www.w3.org/2000/svg" xmlns:xlink="http://www.w3.org/1999/xlink">
    <!-- Generator: Sketch 52.6 (67491) - http://www.bohemiancoding.com/sketch -->
    <title>paper-tsibble</title>
    <desc>Created with Sketch.</desc>
    <g id="Page-1" stroke="none" stroke-width="1" fill="none" fill-rule="evenodd">
        <g id="formal-motivation">
            <g id="chart-copy">
                <rect id="Rectangle" fill="#DEEBF7" x="0" y="0" width="163" height="71" rx="8"></rect>
                <text id="raw-temporal-data" font-family="HelveticaNeue, Helvetica Neue" font-size="20" font-weight="normal" fill="#000000">
                    <tspan x="22.8" y="33.4637681">raw temporal </tspan>
                    <tspan x="61.68" y="56.4637681">data</tspan>
                </text>
            </g>
            <path id="Path-2" d="M511.718237,40.4552995 C509.459858,41.045004 507.305919,41.6054988 503.109804,42.6962995 C480.968091,48.4521464 471.141164,51.0798333 458.906255,54.6258723 C458.339595,54.7901071 458.439257,54.7314733 455.842499,56.3539121 C454.675506,57.0830427 453.829478,57.5485336 452.957886,57.8975718 C451.027981,58.6704233 449.326961,58.6573553 447.872208,57.5760012 C446.681046,56.6905818 446.801283,54.4678776 447.574984,52.9259675 C448.96185,50.1620762 450.798256,47.7247084 452.890478,45.8972285 C461.432597,38.4359969 467.20978,33.5978446 472.579582,29.6442234 C471.944406,28.5071481 471.225787,27.1872154 470.361188,25.5818346 C470.344971,25.5517219 470.344971,25.5517219 470.328754,25.5216113 C467.274249,19.8500176 465.841814,17.3930075 463.818458,14.6337504 C463.840875,14.6643154 463.84058,14.6650856 463.693515,14.7140576 C463.426042,14.8031245 463.132403,15.0252893 462.980289,15.2511532 C461.664705,17.2045663 460.749183,18.9363213 458.797179,22.9550168 C458.793685,22.9622103 458.793685,22.9622103 458.79019,22.969404 C456.868067,26.9265787 455.958953,28.6557236 454.638423,30.6585071 C451.727825,35.0728669 448.512562,39.0226201 445.071528,42.3702695 C440.899478,46.429096 437.299911,49.2489463 433.548161,51.1450551 C431.915598,51.9701416 430.522643,51.7835363 427.709122,50.8713008 C426.61652,50.5170437 425.637157,49.5644429 425.050421,48.377318 C424.064718,46.3829741 423.382079,44.6143795 422.060311,40.8522587 C422.024324,40.7498231 422.024324,40.7498231 421.988359,40.6474423 C419.93526,34.8029806 418.86106,32.3295184 417.00089,29.8490202 C415.981185,28.4892645 414.495895,27.8622402 412.017147,27.518615 C411.59193,27.4596678 411.332996,27.4297426 410.443627,27.3324156 C410.045202,27.2888144 409.805718,27.2616029 409.553779,27.2304462 C409.386699,27.2097501 409.386699,27.2097501 409.219416,27.1890144 C407.999757,27.0380209 407.344201,26.9696971 406.615724,26.9309532 C404.440068,26.8152415 402.836379,27.1117454 401.51571,27.9969327 C400.226962,28.8607249 399.28554,30.488671 398.122727,33.5051777 C397.977906,33.880865 397.480543,35.2031606 397.385528,35.451367 C397.383383,35.4569693 397.383383,35.4569693 397.381238,35.4625705 C397.084599,36.2371179 396.962231,37.0358271 396.83033,38.6880952 C396.82393,38.7684133 396.82393,38.7684133 396.81753,38.849029 C396.621826,41.3138214 396.427212,42.3740514 395.740256,43.5519755 C394.545865,45.5999956 392.528243,46.9068545 389.965418,47.6647439 C387.339566,48.4412719 384.472901,48.514724 381.20775,48.037008 C379.386214,47.7705039 377.884168,47.082714 375.225313,45.5277819 C371.680038,43.4544604 369.695154,42.0985268 367.731732,40.2079118 C367.649121,40.128432 367.580596,40.0625057 367.522225,40.0063345 C366.246522,41.3358902 364.739955,42.5389992 362.961591,43.7330761 C362.527895,44.0242799 358.428459,46.6592169 357.095282,47.5803856 C354.622105,49.2892463 352.435173,51.0336271 350.216126,53.1432414 C349.72234,53.6126763 349.44984,54.2953082 348.987694,56.0290615 C348.975992,56.0729648 348.975992,56.0729648 348.964246,56.1170171 C348.48897,57.8991339 348.190438,58.7080801 347.554395,59.522533 C346.371249,61.0375499 343.998535,61.7926215 343.083499,59.9756651 C338.188115,50.2550647 337.134339,44.8113553 337.233411,36.4985827 C337.261998,34.0999939 337.241415,33.1480805 337.087221,31.9403239 C336.360407,26.2474314 331.998145,20.8696115 318.683933,10.7076461 C314.379751,7.42251353 310.008965,5.48746621 305.92012,5.29124802 C301.479948,5.07817017 299.093013,12.2334719 298.233243,25.457339 C298.022059,28.7054989 297.960637,30.4631537 297.782812,36.9947792 C297.588902,44.1172139 297.433632,46.0876081 296.645655,47.0125484 C293.903811,50.2309682 286.162748,48.7335462 279.842495,44.1954164 C279.671643,44.0727395 279.502873,43.9487264 279.336214,43.8234007 C279.222885,44.1669743 279.102629,44.5117344 278.975517,44.8576028 C276.671606,51.1264962 272.115688,57.4766397 267.465858,61.5653155 C265.08288,63.6607095 262.494878,63.386807 260.214089,61.2850096 C258.538407,59.7408308 257.053074,57.2204601 256.119793,54.6484224 C254.212708,49.3926667 252.925453,44.9446133 250.347395,35.2304136 C250.315883,35.1116752 250.315883,35.1116752 250.284375,34.9929454 C247.093158,22.9679046 245.509079,17.7010059 242.942864,11.5102366 C241.677415,8.45745143 238.930157,6.03786994 236.083906,5.28702807 C230.049585,3.6951721 223.439979,3.60479772 216.617023,4.87375665 C215.206169,5.13615267 213.779882,6.73200636 212.283878,9.44028211 C212.0544,9.85571478 211.248717,11.3121746 211.10009,11.581112 C206.886512,19.205461 204.347596,24.2186692 202.494094,29.0951114 C208.402976,36.5014198 212.604743,46.2404029 211.46945,53.6234201 C211.066718,56.2424635 209.139069,57.5605995 206.516747,57.6191412 C204.549494,57.6630589 202.284195,56.9505514 201.283202,56.0180941 C199.812911,54.6484705 199.129117,50.4060526 198.83967,43.8729058 C198.658251,39.7780602 198.68631,34.2259413 198.826795,33.747271 C199.25775,32.2788877 199.715064,30.8722226 200.220967,29.4713203 C194.840567,23.012928 188.275412,18.7239797 183.67942,20.5452009 C173.972783,24.3915809 168.938778,30.5090816 163.933511,43.5406719 L162.066489,42.8235728 C167.254716,29.3156361 172.643462,22.7670401 182.942632,18.6858611 C188.214663,16.5967508 195.243957,20.7760162 201.027821,27.3452119 C202.880852,22.6872495 205.387291,17.783437 209.349618,10.6137183 C209.498549,10.344232 210.304099,8.88801392 210.53321,8.47324393 C212.307338,5.26146949 214.044365,3.31793351 216.251327,2.90747437 C223.351176,1.58701764 230.256897,1.68144085 236.594055,3.35318511 C240.046991,4.26407082 243.287079,7.11770045 244.790421,10.7443821 C247.40239,17.0455294 249.003188,22.3680157 252.217462,34.4799409 C252.24897,34.5986699 252.24897,34.5986699 252.280478,34.7173914 C254.843416,44.3746193 256.119617,48.7844756 257.99985,53.9662314 C258.832978,56.2622557 260.161881,58.51719 261.569414,59.8142635 C263.149794,61.2706185 264.597952,61.423885 266.145181,60.06338 C270.554799,56.1859268 274.914828,50.1088177 277.09828,44.1676902 C277.30876,43.5949777 277.498911,43.0266641 277.668402,42.4630657 C271.862748,37.3211155 269.314182,30.3734038 271.743495,22.9483214 C272.147365,21.7139125 273.259411,21.6403457 274.289458,22.2248553 C274.825606,22.5290976 275.414005,23.038903 275.875722,23.5482275 C280.492736,28.6412991 281.654895,34.9261603 279.93703,41.7589051 C280.28328,42.0356644 280.640712,42.3063929 281.008996,42.5708313 C286.585023,46.5745856 293.28695,47.8709981 295.123221,45.7155535 C295.420183,45.3669743 295.624845,42.7698042 295.783553,36.9403488 C295.962152,30.3802958 296.023981,28.6109918 296.237457,25.3275799 C297.178837,10.8484838 299.798618,2.9951838 306.015987,3.29354696 C310.564997,3.51184781 315.297616,5.60708773 319.897364,9.11780803 C333.601609,19.5774626 338.257959,25.3178364 339.071117,31.687039 C339.24112,33.0186121 339.262979,34.0295735 339.233269,36.5224171 C339.137825,44.530817 340.130035,49.6611162 344.862031,59.0607194 C344.844646,59.031535 344.846746,59.0180333 345.00979,58.9661478 C345.354217,58.8565404 345.759027,58.5720825 345.978113,58.2915427 C346.38723,57.7676696 346.628449,57.1140264 347.031789,55.6016464 C347.043464,55.5578579 347.043464,55.5578579 347.055172,55.5139318 C347.619138,53.3981996 347.970148,52.5188917 348.838105,51.6937382 C351.137177,49.5080456 353.404196,47.699784 355.958364,45.9349622 C357.32522,44.990523 361.440103,42.3456576 361.846702,42.0726479 C363.514228,40.9529924 364.917598,39.8367415 366.099625,38.5996709 C364.354406,36.7876393 363.338917,35.2890217 362.746544,33.3782719 C361.649508,29.8396895 363.481758,25.6451294 366.883001,22.0670312 C368.229808,20.6501941 369.696269,19.5013757 370.879834,18.9303714 C372.534328,18.1321709 374.096971,18.4486975 373.963118,20.3151358 C373.319437,29.2906085 371.893589,34.5325596 368.831575,38.4906876 C368.90453,38.560917 368.995912,38.6488332 369.118982,38.7672391 C370.938019,40.5188229 372.817604,41.8028239 376.23496,43.8013368 C378.67743,45.2297241 380.011814,45.8407413 381.497282,46.0580762 C384.498536,46.497182 387.085088,46.4309072 389.39825,45.7468491 C391.51614,45.1205378 393.113683,44.0857736 394.012592,42.5444146 C394.491289,41.7235945 394.652904,40.8431333 394.823804,38.690728 C394.830214,38.6099968 394.830214,38.6099968 394.836672,38.5289407 C394.983642,36.687913 395.125897,35.7594013 395.513528,34.7472677 C395.515617,34.7418117 395.515617,34.7418117 395.517707,34.7363533 C395.609609,34.496279 396.108082,33.1710305 396.256579,32.7858086 C397.563812,29.3946555 398.656016,27.505971 400.402184,26.33559 C402.142839,25.1689043 404.153425,24.7971698 406.721943,24.9337758 C407.510741,24.9757278 408.201096,25.0476785 409.46514,25.2041668 C409.632994,25.2249734 409.632994,25.2249734 409.799243,25.2455666 C410.039431,25.27527 410.271496,25.3016385 410.661196,25.3442849 C411.571668,25.4439213 411.840071,25.4749408 412.291778,25.5375603 C415.248415,25.9474345 417.189406,26.7668361 418.600953,28.6491042 C420.627706,31.351737 421.752583,33.9418889 423.875316,39.9845738 C423.911285,40.0869663 423.911285,40.0869663 423.94724,40.1893127 C425.242327,43.8754911 425.905341,45.5932417 426.843381,47.4911488 C427.206915,48.2266771 427.791844,48.7956218 428.325973,48.968804 C430.628929,49.7154976 431.667481,49.8546257 432.646041,49.3600681 C436.183717,47.5721508 439.637548,44.866468 443.6769,40.9367377 C447.010512,37.693596 450.134882,33.8554982 452.968703,29.5575816 C454.224739,27.6526144 455.107633,25.973341 456.991186,22.0955716 C456.99468,22.0883782 456.99468,22.0883782 456.998174,22.0811847 C458.991704,17.976999 459.935418,16.1919171 461.321422,14.1339411 C462.274697,12.7184931 464.379982,12.017444 465.430534,13.4500214 C467.527803,16.3099473 468.990334,18.8185269 472.089623,24.5732745 C472.10584,24.6033863 472.10584,24.6033863 472.122056,24.6334961 C472.930779,26.1351269 473.609516,27.3827208 474.210273,28.4617886 C476.076321,27.1297054 477.921724,25.8849478 479.848727,24.6521178 C482.064687,23.2344224 485.61049,23.6513053 486.057963,26.3172372 C486.499528,28.9479722 486.262836,31.0288026 485.304208,35.6961933 C485.233035,36.0427326 485.201728,36.1955779 485.162633,36.3879616 C484.77883,38.2766552 484.538867,39.723156 484.440852,40.9779643 C484.810557,41.1927309 485.21447,41.3636156 485.657583,41.495726 L486.584477,40.8608202 L487.921011,39.945319 L488.126352,41.4477525 C488.161658,41.4954393 488.215207,41.5573209 488.289004,41.6352992 C488.230268,41.573235 488.611615,41.9636444 488.698499,42.0713214 C488.897753,42.3182604 489.002257,42.5095068 488.97661,42.8789872 C488.9243,43.6326009 488.377365,43.8689178 487.846619,43.8438845 C487.212971,43.8139977 486.617733,43.7503917 486.057002,43.6463417 L484.087486,44.9954244 L482.750952,45.9109255 L482.531579,44.305827 C482.425451,43.5293104 482.378373,42.7763527 482.38962,41.9836701 C479.970492,40.14874 477.834482,37.9361471 476.118589,35.4296667 C475.227988,34.128727 474.462485,32.9184223 473.576005,31.3950762 C468.310709,35.2856105 462.607415,40.0653499 454.206176,47.4035281 C452.316475,49.0541135 450.636873,51.2833638 449.362563,53.8229401 C449.177544,54.1916654 449.029095,54.7688414 449.001862,55.2722835 C448.978649,55.7013999 449.047888,55.9579009 449.065339,55.9708728 C449.87452,56.5723567 450.868225,56.5799907 452.214367,56.0409136 C452.94965,55.7464616 453.70861,55.3288761 454.782752,54.6577585 C454.993418,54.5261359 455.72868,54.0607037 455.706025,54.0749859 C456.073455,53.8433521 456.34411,53.6766285 456.603496,53.5240251 C457.297091,53.1159651 457.842328,52.8519221 458.349508,52.7049265 C470.608116,49.1520188 480.447003,46.5211339 502.606618,40.7606333 C506.798811,39.6708521 508.952143,39.1105161 511.20778,38.5215305 L509.677073,32.7227369 L525,35.9177194 L513.250258,46.2590713 L511.718237,40.4552995 Z M278.230445,40.2584007 C279.439882,34.4380266 278.291725,29.1911621 274.393953,24.8914928 C274.122269,24.5917959 273.779352,24.2831752 273.485938,24.0805238 C271.705761,30.1423301 273.656241,35.8226647 278.230445,40.2584007 Z M344.862031,59.0607194 L344.860342,59.0592935 C344.863184,59.0643189 344.866609,59.0698116 344.869767,59.0760839 C344.867188,59.0709611 344.864609,59.0658396 344.862031,59.0607194 Z M367.401437,37.066765 C370.063127,33.5159858 371.315229,28.7930409 371.933115,20.6482558 C371.87617,20.6723199 371.814521,20.7000251 371.748873,20.7316964 C370.807139,21.1860305 369.525363,22.1901678 368.332585,23.4449667 C365.377817,26.553374 363.825977,30.1059947 364.656847,32.7860374 C365.123501,34.2912699 365.947141,35.5329115 367.401437,37.066765 Z M475.202015,30.2118526 C476.109465,31.7792837 476.876541,32.996347 477.768917,34.2998804 C479.115595,36.2670311 480.744368,38.0423133 482.577176,39.5764065 C482.7131,38.5367734 482.921948,37.3712164 483.202691,35.9896802 C483.242154,35.7954868 483.273784,35.6410665 483.345103,35.2938158 C484.253563,30.8706839 484.471979,28.9505245 484.085554,26.6483031 C483.94091,25.7865513 482.121121,25.5725971 480.926554,26.3368399 C478.972153,27.5871985 477.100669,28.8517656 475.202015,30.2118526 Z M487.140846,43.3257942 L487.135237,43.3196098 C487.138543,43.3232114 487.140852,43.3258089 487.142011,43.3272448 C487.141625,43.3267662 487.141236,43.3262827 487.140846,43.3257942 Z M201.68969,31.3274884 C201.356352,32.3056016 201.044374,33.2933456 200.745852,34.3104936 C200.698519,34.4717694 200.670526,40.0108379 200.83771,43.7843841 C201.094225,49.5742341 201.764567,53.733186 202.64643,54.5546695 C203.230919,55.09914 204.990892,55.6527067 206.472109,55.6196394 C208.20824,55.5808813 209.25501,54.8650954 209.492684,53.3194512 C210.491787,46.8220999 206.832929,38.1696819 201.68969,31.3274884 Z" fill="#979797" fill-rule="nonzero"></path>
            <g id="chart-copy" transform="translate(525.000000, 0.000000)">
                <rect id="Rectangle" fill="#DEEBF7" x="0" y="0" width="163" height="71" rx="8"></rect>
                <text id="model-ready-time-ser" font-family="HelveticaNeue, Helvetica Neue" font-size="20" font-weight="normal" fill="#000000">
                    <tspan x="25" y="33.4637681">model-ready </tspan>
                    <tspan x="33.16" y="56.4637681">time series</tspan>
                </text>
            </g>
            <path id="Path" d="M507.542094,58.2027698 C498.016611,58.576521 492.685923,58.5728744 486.7413,58.0077561 C474.750585,56.8678734 467.450254,54.8163311 462.910806,51.4218415 C459.044071,48.5303903 457.32218,45.1992495 455.382255,38.3084209 C455.26555,37.8938711 455.1471,37.4666797 454.985564,36.8794047 C455.064708,37.1671361 454.676957,35.7559337 454.579791,35.4042556 C454.243107,34.1856752 453.977155,33.2506439 453.69641,32.3110041 C452.967176,29.8702938 452.221555,27.7009773 451.334352,25.5208378 C449.105586,20.044052 446.074434,14.7796484 441.760587,9.28985719 C439.603183,6.54434962 436.895368,6.0941718 433.945281,7.51389782 C431.422236,8.72811028 429.053553,11.2674875 428.27417,13.3808684 C427.17453,16.3626578 426.400865,20.5864573 425.27264,28.838612 C425.158806,29.6712235 424.742568,32.7498485 424.766791,32.5712301 C424.560171,34.0947955 424.400897,35.2497944 424.240525,36.3787957 C422.829431,46.3127662 421.499183,52.5546843 419.482362,57.1668836 C416.795347,63.311728 412.924542,65.70417 407.790127,63.3491908 C398.863208,59.2547209 394.437126,54.6854172 387.21623,44.1227327 C386.921457,43.691408 386.752767,43.4445629 386.626726,43.2602743 C386.401325,42.9307078 386.21527,42.6591994 386.036263,42.3987799 C379.354047,32.6774875 374.47423,27.8177101 365.42515,23.5994165 C359.193475,20.6944766 338.669174,18.5296873 320.253471,17.6574606 C319.795622,17.6357754 319.44423,17.6185207 318.598154,17.5765056 C316.501384,17.4723825 315.547019,17.4287718 314.373631,17.3888726 C310.630999,17.2616103 307.717666,17.3238126 304.933367,17.6517169 C303.986834,17.7631892 302.992594,18.4587441 302.689951,19.2139107 C302.175278,20.498138 302.212949,21.9392448 302.566916,22.047912 C307.596951,23.5921197 311.764397,24.3725259 321.24772,25.7842006 C321.323897,25.7955402 321.323897,25.7955402 321.40008,25.8068812 C330.041614,27.0933257 333.986669,27.8103427 338.727936,29.1446685 C343.688494,30.5407091 350.285641,36.2175299 354.441166,42.6963055 C359.335887,50.3275432 360.177897,57.7311643 355.550113,62.8458365 C353.019627,65.6425546 349.692753,66.7645252 343.541405,67.6347684 C343.130726,67.6928679 342.951537,67.7174302 342.021588,67.843964 C340.184886,68.0938752 339.277126,68.2295666 338.270821,68.4188798 C335.405268,68.9579685 333.096546,69.1223329 327.900524,69.2939185 C327.811752,69.29685 327.811752,69.29685 327.723011,69.2997831 C323.304196,69.4459012 321.214367,69.5826266 318.758956,69.97397 C318.772427,69.9718229 318.762083,69.9758805 318.731949,69.9937028 C318.557326,70.0969827 318.3177,70.3335904 317.964976,70.7495789 C317.940449,70.7785052 317.595889,71.1907839 317.49545,71.3066504 C317.29618,71.5365279 317.135818,71.7029868 316.970069,71.8402809 C316.235901,72.4484092 315.243899,72.3951923 314.82766,71.3723173 C309.419565,58.082355 308.224696,53.0078712 308.3569,48.0606776 C308.368312,47.6336197 308.371558,47.4864583 308.372795,47.2775512 C308.390132,44.350995 307.156633,41.1488996 301.71184,31.3511257 C298.627264,25.8005055 289.087572,16.8247129 286.118835,18.0250635 L285.426459,19.6349903 L285.310287,19.905117 L285.066387,20.069365 C282.114753,22.0570688 280.603661,24.9819874 280.147795,29.0980342 C279.791165,32.318068 279.990642,35.1568102 280.831807,42.0717631 C280.92947,42.8746192 280.982164,43.3113364 281.039864,43.7998535 C281.921594,51.2650143 281.977499,55.5637849 280.809503,59.6700582 C280.231537,61.701988 278.376422,61.5843768 275.731503,60.4075956 C275.383274,60.252661 275.020443,60.0789003 274.61746,59.8762932 C274.267715,59.7004523 273.172,59.1294781 272.992024,59.0389432 C272.766217,58.9253542 264.564895,53.321446 260.652687,50.9017587 C258.593867,49.6283857 256.627771,48.4816961 254.755029,47.4728139 C246.977312,43.2828064 241.39998,41.8237318 239.152223,43.7179593 C239.309728,43.585227 235.68155,48.6019527 233.521262,51.2462253 C232.370371,52.6549593 231.26338,53.9122219 230.205378,54.9949357 C227.309591,57.9583606 224.924992,59.5154479 222.92539,59.2547151 C216.645323,58.4358425 211.33548,57.4202573 206.540561,56.1931369 C202.498002,55.158561 192.369532,51.7801894 190.393103,51.3923875 C184.559654,50.2477863 178.580991,51.6084362 164.103569,57.680456 L163.330025,55.8361055 C178.147514,49.6214571 184.447582,48.1876603 190.778187,49.42981 C192.9081,49.8477275 203.111743,53.2511735 207.036423,54.2555813 C211.752507,55.4625264 216.983127,56.4629591 223.183985,57.2715035 C224.316255,57.4191427 226.316414,56.1130858 228.774935,53.5971407 C229.787525,52.5608994 230.856493,51.3468203 231.972427,49.9808758 C233.982718,47.520204 237.799949,42.2420725 237.863402,42.1885996 C241.044486,39.5078394 247.153644,41.1060437 255.703581,45.7120613 C257.614011,46.7412469 259.613917,47.9076557 261.704718,49.200809 C265.717411,51.682646 273.806491,57.2098593 273.890789,57.2522644 C274.087874,57.3514053 275.183334,57.9222475 275.515842,58.0894218 C275.892706,58.278897 276.228143,58.4395388 276.544508,58.5802962 C278.116969,59.2799179 278.828314,59.3250159 278.88581,59.1228794 C279.958804,55.3505976 279.905423,51.2458002 279.05367,44.0344483 C278.996321,43.548901 278.943838,43.11393 278.846442,42.3132715 C277.985258,35.233743 277.779816,32.3101224 278.159949,28.8778735 C278.663726,24.3292395 280.379417,20.9231559 283.703013,18.5801104 L284.417291,16.9192576 L284.533463,16.6491309 L284.777363,16.4848829 C287.259226,14.8135345 290.978309,16.7324449 295.491451,20.9458241 C298.755018,23.9926247 302.255002,28.2111971 303.460035,30.3796237 C309.064347,40.464448 310.392762,43.9129421 310.37276,47.289399 C310.37141,47.5173447 310.367992,47.6723207 310.356186,48.1141045 C310.235622,52.625717 311.310614,57.3184423 316.284126,69.6413474 C316.361032,69.5496653 316.425295,69.4729173 316.439532,69.4561269 C316.931889,68.8754608 317.287342,68.5244836 317.713809,68.2722526 C317.946932,68.134374 318.188381,68.0396656 318.444169,67.998898 C321.008333,67.5902216 323.156115,67.4497047 327.656912,67.3008756 C327.745729,67.29794 327.745729,67.29794 327.834515,67.2950081 C332.928441,67.1267939 335.169432,66.9672516 337.901054,66.4533591 C338.951196,66.2557987 339.88231,66.1166164 341.751942,65.8622245 C342.677646,65.7362684 342.855592,65.7118765 343.26125,65.6544872 C348.96988,64.8468763 351.952524,63.8409954 354.067074,61.5039743 C357.956964,57.2048299 357.221146,50.7349422 352.757698,43.7760915 C348.845033,37.6759529 342.617173,32.3169021 338.186127,31.0698809 C333.552857,29.7659485 329.664174,29.0591774 321.10559,27.7850813 C321.029422,27.7737425 321.029422,27.7737425 320.953247,27.7624033 C311.370759,26.335967 307.137846,25.5433012 301.979959,23.9598431 C299.994582,23.3503377 299.926187,20.7338307 300.833487,18.4699062 C301.421771,17.0020015 303.055535,15.8590457 304.699445,15.6654439 C307.600217,15.3238227 310.606761,15.2596302 314.441599,15.3900278 C315.628821,15.4303975 316.590235,15.4743303 318.697349,15.578967 C319.541873,15.6209051 319.892295,15.6381122 320.348091,15.6597002 C339.144448,16.5499558 359.683568,18.716308 366.270162,21.7866965 C375.705232,26.1849219 380.8183,31.2769916 387.68444,41.2658572 C387.864452,41.5277383 388.051342,41.8004664 388.277555,42.1312199 C388.403848,42.3158772 388.572807,42.5631164 388.867296,42.9940254 C395.900267,53.2818137 400.107339,57.625021 408.623935,61.5312899 C412.557542,63.3354998 415.359343,61.603781 417.649899,56.365585 C419.570283,51.9739238 420.874498,45.8541619 422.260402,36.0975245 C422.420078,34.9734256 422.57883,33.8222129 422.784933,32.3024582 C422.760524,32.4824473 423.177003,29.402045 423.291074,28.5676947 C424.4412,20.1553469 425.227711,15.8614211 426.397705,12.6888562 C427.359968,10.079579 430.095273,7.14715997 433.07799,5.71173067 C436.830288,3.90594122 440.560899,4.52616014 443.333163,8.05413628 C447.763975,13.6927775 450.888653,19.1196144 453.186834,24.7669741 C454.100295,27.0116377 454.866269,29.24017 455.612705,31.7384547 C455.898072,32.6935641 456.167506,33.6408379 456.507564,34.8716266 C456.605173,35.2249088 456.993499,36.6382084 456.913946,36.348985 C457.074511,36.9327325 457.192009,37.3564902 457.30742,37.7664431 C459.138055,44.2690603 460.683609,47.2590639 464.108525,49.8201331 C468.288213,52.9456029 475.273261,54.9085441 486.930575,56.0167324 C492.76514,56.5713882 498.030083,56.5746643 507.479857,56.2036713 L507.292862,50.1973189 L521.503906,56.7582807 L507.72851,64.1905391 L507.542094,58.2027698 Z M315.705004,70.2917103 L315.727362,70.2709969 C315.715405,70.281995 315.704376,70.2916703 315.694259,70.3000504 C315.697693,70.2972058 315.701277,70.2944253 315.705004,70.2917103 Z" fill="#979797" fill-rule="nonzero"></path>
        </g>
    </g>
</svg>