<?xml version="1.0" encoding="UTF-8"?>
<svg width="894px" height="366px" viewBox="0 0 894 366" version="1.1" xmlns="http://www.w3.org/2000/svg" xmlns:xlink="http://www.w3.org/1999/xlink">
    <!-- Generator: Sketch 52.5 (67469) - http://www.bohemiancoding.com/sketch -->
    <title>paper-tsibble</title>
    <desc>Created with Sketch.</desc>
    <g id="Page-1" stroke="none" stroke-width="1" fill="none" fill-rule="evenodd">
        <g id="r4ds">
            <g id="chart-copy">
                <rect id="Rectangle" fill="#DEEBF7" x="0" y="0" width="183.247423" height="78.6363636" rx="8"></rect>
                <text id="Import" font-family="HelveticaNeue, Helvetica Neue" font-size="26" font-weight="normal" fill="#000000">
                    <tspan x="53.0785689" y="46">Import</tspan>
                </text>
                <path id="Line" d="M91.1620441,117.337993 L90.6238081,78.6502746 L90.6098971,77.6503714 L92.6097036,77.6225494 L92.6236146,78.6224527 L93.1618506,117.310171 L99.16127,117.226705 L92.356701,131.322727 L85.1626247,117.421459 L91.1620441,117.337993 Z" fill="#979797" fill-rule="nonzero"></path>
                <path id="Line" d="M223.48866,172.660036 L183.247423,172.660036 L182.247423,172.660036 L182.247423,170.660036 L183.247423,170.660036 L223.48866,170.660036 L223.48866,164.660036 L237.48866,171.660036 L223.48866,178.660036 L223.48866,172.660036 Z" fill="#979797" fill-rule="nonzero"></path>
                <path id="Line" d="M697,173.213636 L656.758763,173.213636 L655.758763,173.213636 L655.758763,171.213636 L656.758763,171.213636 L697,171.213636 L697,165.213636 L711,172.213636 L697,179.213636 L697,173.213636 Z" fill="#979797" fill-rule="nonzero"></path>
            </g>
            <g id="chart-copy" transform="translate(0.000000, 131.000000)">
                <rect id="Rectangle" fill="#DEEBF7" x="0" y="0" width="183" height="78" rx="8"></rect>
                <text id="Tidy" font-family="HelveticaNeue, Helvetica Neue" font-size="26" font-weight="normal" fill="#000000">
                    <tspan x="66.4657273" y="46">Tidy</tspan>
                </text>
            </g>
            <g id="chart-copy" transform="translate(237.000000, 131.000000)">
                <rect id="Rectangle" fill="#DEEBF7" x="0" y="0" width="183" height="78" rx="8"></rect>
                <text id="Transform" font-family="HelveticaNeue, Helvetica Neue" font-size="26" font-weight="normal" fill="#000000">
                    <tspan x="32.9907273" y="46">Transform</tspan>
                </text>
            </g>
            <g id="chart-copy" transform="translate(499.000000, 0.000000)">
                <rect id="Rectangle" fill="#DEEBF7" x="0" y="0" width="183" height="78" rx="8"></rect>
                <text id="Visualise" font-family="HelveticaNeue, Helvetica Neue" font-size="26" font-weight="normal" fill="#000000">
                    <tspan x="40.4657273" y="46">Visualise</tspan>
                </text>
            </g>
            <g id="chart-copy" transform="translate(711.000000, 131.000000)">
                <rect id="Rectangle" fill="#DEEBF7" x="0" y="0" width="183" height="78" rx="8"></rect>
                <text id="Communicate" font-family="HelveticaNeue, Helvetica Neue" font-size="26" font-weight="normal" fill="#000000">
                    <tspan x="10.4727273" y="46">Communicate</tspan>
                </text>
            </g>
            <g id="chart-copy" transform="translate(421.000000, 288.000000)">
                <rect id="Rectangle" fill="#DEEBF7" x="0" y="0" width="183" height="78" rx="8"></rect>
                <text id="Model" font-family="HelveticaNeue, Helvetica Neue" font-size="26" font-weight="normal" fill="#000000">
                    <tspan x="54.6617273" y="46">Model</tspan>
                </text>
            </g>
            <path id="Line-3" d="M634.148918,91.5609521 C656.662879,141.514154 663.263156,178.374087 653.842178,202.20959 C644.560745,225.692036 620.159859,250.495879 580.657873,276.683899 L583.456732,281.041467 C583.705988,281.429535 583.593458,281.946188 583.20539,282.195444 C583.096306,282.265509 582.972406,282.309214 582.843504,282.323097 L569.137878,283.799304 C568.679309,283.848696 568.267525,283.516992 568.218134,283.058423 C568.198783,282.878768 568.238225,282.697683 568.330537,282.542349 L575.372947,270.692124 C575.608576,270.295633 576.121009,270.165229 576.517499,270.400857 C576.628951,270.467091 576.723451,270.558365 576.793516,270.667449 L579.576908,275.000936 C618.754464,249.024424 642.883445,224.494677 651.982193,201.474431 C661.15122,178.276378 654.638612,141.897918 632.336866,92.4078488 L627.670609,94.5887122 C627.553156,94.643606 627.424535,94.6703999 627.294933,94.6669719 C626.833873,94.6547768 626.469996,94.2711275 626.482191,93.8100673 L626.846676,80.0299902 C626.851454,79.8493593 626.914688,79.6751505 627.026889,79.5335124 C627.313281,79.1719813 627.838527,79.1110692 628.200058,79.3974614 L639.005429,87.9570955 C639.107054,88.0375993 639.18854,88.1406584 639.243434,88.2581112 C639.438718,88.6759498 639.258303,89.1729845 638.840464,89.3682693 L634.148918,91.5609521 Z" fill="#979797" fill-rule="nonzero"></path>
            <path id="Line-4" d="M412.06283,223.227874 C419.005222,234.786759 427.365044,244.033154 437.143455,250.975826 C448.351684,258.933668 466.950846,267.793619 492.918673,277.532902 L494.679907,272.688422 C494.837495,272.254958 495.316637,272.031316 495.750101,272.188904 C495.871947,272.233201 495.981805,272.305259 496.070976,272.399371 L505.552185,282.405871 C505.869412,282.740673 505.855164,283.269247 505.520362,283.586474 C505.389196,283.710754 505.221258,283.78914 505.041757,283.809865 L491.347831,285.390932 C490.889653,285.443832 490.475343,285.11529 490.422443,284.657112 C490.407573,284.52832 490.422893,284.397835 490.46719,284.27599 L492.235287,279.412634 C466.109263,269.614985 447.3668,260.687236 435.985611,252.606592 C425.946188,245.478601 417.379672,235.992067 410.287234,224.155832 L405.660683,226.573751 C405.54578,226.6338 405.418475,226.666274 405.288848,226.668598 C404.827701,226.676867 404.447164,226.309737 404.438894,225.84859 L404.191742,212.065909 C404.188502,211.885244 404.243947,211.708402 404.349755,211.561926 C404.619828,211.188046 405.141854,211.103894 405.515734,211.373967 L416.69017,219.445854 C416.795266,219.521771 416.881243,219.621114 416.941293,219.736016 C417.154921,220.14478 416.996731,220.649329 416.587966,220.862957 L412.06283,223.227874 Z" fill="#979797" fill-rule="nonzero"></path>
            <path id="Line-2" d="M385.774254,117.489965 C402.339057,89.6627908 416.659035,71.0344175 428.782309,61.5823737 C440.667075,52.3162849 459.77546,43.1873117 486.125277,34.1688358 L484.516986,29.2463556 C484.373746,28.807941 484.613031,28.3364163 485.051446,28.1931758 C485.174683,28.1529115 485.305602,28.1418928 485.433835,28.1609924 L499.068324,30.1917737 C499.524513,30.2597205 499.839246,30.6846166 499.771299,31.1408057 C499.744679,31.3195282 499.66081,31.4847958 499.532281,31.611802 L489.726962,41.3009248 C489.398891,41.625108 488.870135,41.6219563 488.545952,41.2938854 C488.454825,41.201666 488.386421,41.0894963 488.346157,40.9662597 L486.746474,36.0701256 C460.60247,45.0199379 441.685061,54.058638 430.01204,63.1596376 C418.132709,72.4214892 403.947589,90.8733975 387.504761,118.49291 L391.963783,121.077213 C392.075954,121.142223 392.171447,121.232457 392.242702,121.340768 C392.496191,121.726084 392.389323,122.243938 392.004007,122.497427 L380.487746,130.073646 C380.336789,130.172956 380.157694,130.220626 379.977343,130.2095 C379.516997,130.181101 379.166834,129.784895 379.195233,129.324548 L380.044014,115.565808 C380.051997,115.436406 380.089998,115.31064 380.155008,115.19847 C380.386282,114.799424 380.897257,114.663418 381.296303,114.894692 L385.774254,117.489965 Z" fill="#979797" fill-rule="nonzero"></path>
        </g>
    </g>
</svg>